<svg width="20" height="15" viewBox="0 0 20 15" fill="none" xmlns="http://www.w3.org/2000/svg">
<path d="M12.8233 0.75H0.75V13.75H4.11034V9.52066H10.5494L13.4873 13.75L17.2509 13.77L14.0104 9.50119C15.0166 9.34531 15.7409 8.97493 16.1836 8.39025C16.6262 7.80558 16.8476 6.86999 16.8476 5.62265V4.64812C16.8476 3.90746 16.7673 3.32279 16.6263 2.87452C16.4854 2.42625 16.2439 2.03639 15.9019 1.68559C15.5397 1.35426 15.1373 1.12039 14.6544 0.96451C14.1714 0.828105 13.5677 0.75 12.8233 0.75ZM12.28 6.6557H4.11034V3.61507H12.28C12.7427 3.61507 13.0647 3.69295 13.2256 3.82947C13.3866 3.96587 13.4873 4.21921 13.4873 4.5896V5.68106C13.4873 6.07081 13.3866 6.32415 13.2256 6.46055C13.0647 6.59696 12.7428 6.6557 12.28 6.6557Z" stroke="#353535" stroke-width="1.5" stroke-linecap="round" stroke-linejoin="round"/>
<path d="M18.5002 3.36711C19.1902 3.36711 19.75 2.96378 19.75 2.46621C19.75 1.96864 19.1902 1.56531 18.5002 1.56531C17.8097 1.56531 17.25 1.96864 17.25 2.46621C17.25 2.96378 17.8097 3.36711 18.5002 3.36711Z" fill="#353535"/>
</svg>
