<svg width="17" height="15" viewBox="0 0 17 15" fill="none" xmlns="http://www.w3.org/2000/svg">
<path fill-rule="evenodd" clip-rule="evenodd" d="M3.66067 9.0857C3.69725 9.09818 3.73417 9.10696 3.77106 9.11236C3.81129 9.20786 3.86325 9.33128 3.92389 9.47563C4.07186 9.82794 4.27124 10.3045 4.47705 10.8016C4.89675 11.8154 5.32012 12.8604 5.41362 13.1596C5.52937 13.5293 5.65172 13.7807 5.78528 13.9524C5.85434 14.0412 5.93422 14.1186 6.02768 14.1773C6.07473 14.2069 6.12443 14.2311 6.1763 14.2491C6.17859 14.25 6.18088 14.2507 6.18316 14.2515C6.45059 14.3534 6.6944 14.311 6.84705 14.2591C6.92873 14.2312 6.99481 14.1978 7.04165 14.1706C7.06553 14.1567 7.08571 14.1438 7.1018 14.1328L7.1056 14.1303L9.46733 12.6433L12.1954 14.7548C12.2356 14.7859 12.2796 14.8121 12.3261 14.8326C12.6538 14.9769 12.9712 15.0273 13.2697 14.9861C13.5678 14.9451 13.8043 14.8187 13.9805 14.6764C14.153 14.5371 14.27 14.381 14.3428 14.2651C14.3799 14.2059 14.4079 14.1535 14.4276 14.1134C14.4374 14.0932 14.4454 14.0758 14.4516 14.0619L14.4594 14.0435L14.4624 14.0363L14.4637 14.0332L14.4642 14.0318L14.4648 14.0305C14.4791 13.9943 14.4901 13.9568 14.4976 13.9186L16.9881 1.24247C16.996 1.20193 17 1.16069 17 1.11936C17 0.748151 16.8614 0.395171 16.5357 0.180978C16.2573 -0.0020923 15.9471 -0.0099719 15.7511 0.00504495C15.5396 0.0212513 15.3443 0.0739536 15.2133 0.11606C15.1451 0.137978 15.0878 0.15912 15.0466 0.17525C15.0259 0.183357 15.009 0.190317 14.9962 0.195624L14.9868 0.199657L1.01973 5.73104L1.01793 5.73171C1.00903 5.735 0.997598 5.7393 0.984018 5.74462C0.956976 5.75525 0.920733 5.77018 0.878407 5.78958C0.79586 5.82738 0.680054 5.88635 0.561214 5.96852C0.37136 6.09979 -0.0652661 6.45927 0.00825558 7.0526C0.0669108 7.52597 0.388123 7.81669 0.583827 7.95648C0.691285 8.03325 0.793378 8.08809 0.867727 8.12386C0.902215 8.1404 0.973831 8.16975 1.0049 8.18258L1.01275 8.18578L3.66067 9.0857ZM15.4756 1.3649L15.4737 1.36576C15.4666 1.36881 15.4597 1.37173 15.4526 1.37453L1.46861 6.91264C1.46131 6.91551 1.45395 6.91829 1.44655 6.92091L1.43877 6.92386C1.42982 6.92741 1.41476 6.93356 1.39586 6.94217C1.38514 6.94706 1.37395 6.95246 1.36254 6.9582C1.37821 6.96714 1.39321 6.97482 1.40654 6.98123C1.41933 6.98739 1.42909 6.99161 1.43443 6.9938L4.06061 7.88637C4.10868 7.90274 4.15349 7.92434 4.19462 7.95049L12.8661 2.82577L12.8742 2.82092C12.8805 2.81715 12.8889 2.81231 12.8988 2.80663C12.9185 2.79537 12.9456 2.78038 12.9779 2.7638C13.038 2.73288 13.1344 2.68698 13.2429 2.65313C13.3183 2.62957 13.541 2.56318 13.7818 2.64114C13.9304 2.68926 14.0842 2.79269 14.1843 2.96792C14.234 3.05497 14.2604 3.14243 14.2733 3.22248C14.3074 3.34859 14.302 3.47312 14.2753 3.58062C14.2178 3.81221 14.0567 3.99285 13.9101 4.13102C13.7844 4.24948 12.1587 5.83202 10.5549 7.39428C9.75513 8.1733 8.96359 8.94473 8.37186 9.52127L7.98328 9.90007L12.8902 13.698C13.0028 13.7386 13.0693 13.7366 13.1 13.7323C13.1367 13.7273 13.1667 13.713 13.1974 13.6883C13.2317 13.6606 13.2617 13.6231 13.2841 13.5875L13.285 13.586L15.7005 1.29163C15.6646 1.30033 15.6283 1.31069 15.5934 1.32191C15.5539 1.33463 15.5212 1.34674 15.4997 1.3552C15.4889 1.3594 15.4812 1.36258 15.477 1.36433L15.4756 1.3649ZM8.40479 11.821L7.42581 11.0632L7.18864 12.5866L8.40479 11.821ZM6.52777 9.55966L7.50127 8.61081C8.093 8.03418 8.88471 7.26275 9.6846 6.48356L10.4973 5.69206L5.0487 8.91208L5.07793 8.98168C5.22643 9.33525 5.42671 9.81385 5.6336 10.3136C5.78831 10.6873 5.95008 11.0807 6.09743 11.445L6.33395 9.92614C6.35675 9.77968 6.42761 9.65296 6.52777 9.55966Z" fill="#353535"/>
</svg>
