<svg width="24" height="15" viewBox="0 0 24 15" fill="none" xmlns="http://www.w3.org/2000/svg">
<path fill-rule="evenodd" clip-rule="evenodd" d="M23.3378 12.2106C22.7896 11.1065 22.0673 10.0979 21.1986 9.22355C20.9029 8.87986 20.5563 8.5407 20.2857 8.27603L20.2479 8.23904C20.1083 8.10237 19.993 7.98898 19.8987 7.89131C21.0865 6.23958 22.1031 4.47097 22.9326 2.61269L22.9661 2.53771L22.9896 2.45902C23.0985 2.09327 23.2241 1.39775 22.7799 0.769196C22.3208 0.119527 21.5857 0.00235931 21.0934 0.00235931H18.8286C18.3565 -0.0192802 17.8889 0.10836 17.4928 0.367863C17.0937 0.629321 16.7884 1.0107 16.6204 1.45651C16.1327 2.6183 15.5224 3.72337 14.8006 4.75321V2.09913C14.8006 1.75606 14.7684 1.18215 14.401 0.697756C13.9612 0.117773 13.3251 0.00235931 12.8835 0.00235931H9.28985C8.82685 -0.00834453 8.37656 0.157203 8.03051 0.466243C7.67613 0.782722 7.45895 1.22481 7.42503 1.69874L7.42183 1.74363V1.78864C7.42183 2.27795 7.61572 2.63889 7.77062 2.86589C7.83997 2.96752 7.91415 3.06003 7.96101 3.11846L7.97183 3.13194C8.02179 3.19425 8.05514 3.23584 8.08861 3.28136C8.17665 3.40112 8.30328 3.58577 8.33911 4.06357V5.54816C7.71957 4.52971 7.06601 3.17444 6.57426 1.72697L6.56671 1.70475L6.55834 1.68283C6.43573 1.3617 6.23907 0.894437 5.8452 0.536866C5.38506 0.119144 4.84082 0.00235931 4.34586 0.00235931H2.04791C1.54718 0.00235931 0.943521 0.119507 0.4931 0.594649C0.050166 1.0619 0 1.62177 0 1.91946V2.05364L0.0282604 2.1848C0.664751 5.13907 1.97624 7.90563 3.85969 10.2681C4.7136 11.6147 5.87067 12.7434 7.23883 13.5637C8.62883 14.3973 10.197 14.8885 11.814 14.9972L11.8562 15H11.8985C12.63 15 13.3927 14.9369 13.9662 14.5547C14.7399 14.0392 14.8006 13.2474 14.8006 12.8528V11.7059C14.9992 11.8664 15.2455 12.0824 15.5471 12.3728C15.9116 12.7377 16.2019 13.0539 16.4509 13.3298L16.5837 13.4776L16.5845 13.4784C16.7778 13.6937 16.9681 13.9056 17.1414 14.0798C17.3592 14.2987 17.6277 14.54 17.9652 14.7182C18.3307 14.9112 18.7143 14.9985 19.1218 14.9985H21.4213C21.9057 14.9985 22.6005 14.8839 23.0891 14.3176C23.6214 13.7003 23.5808 12.9438 23.4134 12.4001L23.3833 12.3024L23.3378 12.2106ZM17.5734 12.3171C17.3145 12.0301 17.0024 11.69 16.6079 11.2956L16.6047 11.2924C15.2379 9.97453 14.5992 9.74493 14.1476 9.74493C13.9074 9.74493 13.6417 9.77195 13.4692 9.98673C13.3878 10.0881 13.345 10.2105 13.321 10.338C13.2971 10.4653 13.2888 10.6147 13.2888 10.785V12.8528C13.2888 13.1096 13.2466 13.2174 13.1278 13.2967C12.9696 13.4021 12.6314 13.4875 11.907 13.4882C10.5318 13.3944 9.19846 12.976 8.01628 12.2672C6.83168 11.5569 5.83278 10.5753 5.10183 9.40336L5.09388 9.39066L5.08447 9.37887C3.32945 7.19446 2.10653 4.63199 1.51215 1.89394C1.51537 1.76194 1.54396 1.68364 1.5903 1.63476C1.63804 1.58439 1.75373 1.5142 2.04791 1.5142H4.34586C4.60148 1.5142 4.73378 1.56981 4.829 1.65624C4.93694 1.75424 5.03057 1.92066 5.14431 2.21779C5.70834 3.87677 6.47107 5.42822 7.19335 6.56896C7.55436 7.13912 7.90965 7.61374 8.22976 7.94907C8.38955 8.11658 8.54627 8.25526 8.69582 8.35394C8.84057 8.44939 9.00468 8.52468 9.17344 8.52468C9.2625 8.52468 9.36665 8.5155 9.46695 8.47106C9.57483 8.42338 9.65857 8.34376 9.7177 8.23702C9.8223 8.04834 9.85097 7.76886 9.85097 7.40269V4.01242L9.85046 4.00447C9.79821 3.17967 9.54919 2.7157 9.30671 2.38587C9.25357 2.31358 9.20117 2.24829 9.15531 2.19115L9.14275 2.1755C9.09239 2.11271 9.05233 2.06197 9.01941 2.01372C8.95909 1.92532 8.93571 1.86369 8.93379 1.79764C8.94166 1.71925 8.97861 1.64651 9.03754 1.59388C9.09871 1.53925 9.17876 1.51081 9.2607 1.5142H12.8835C13.0912 1.5142 13.1612 1.56488 13.1964 1.6113C13.2461 1.67684 13.2888 1.81313 13.2888 2.09913V6.6635C13.2888 7.20564 13.5388 7.57272 13.9017 7.57272C14.3194 7.57272 14.6204 7.31933 15.147 6.79281L15.1557 6.78404L15.1636 6.77437C16.3436 5.33539 17.3081 3.73222 18.0259 2.01522L18.0304 2.00235C18.0845 1.85063 18.1866 1.72074 18.3213 1.63249C18.456 1.54425 18.6158 1.50249 18.7765 1.51361L18.7852 1.5142H21.0934C21.4082 1.5142 21.5118 1.59432 21.5453 1.6417C21.5808 1.69211 21.6056 1.80014 21.5452 2.01201C20.7176 3.86292 19.6942 5.61982 18.4929 7.25322L18.4853 7.26471C18.3687 7.4431 18.2408 7.64045 18.2222 7.86702C18.2024 8.11033 18.3077 8.33156 18.4919 8.56862C18.6261 8.76707 18.903 9.0381 19.1839 9.31305L19.2104 9.33895C19.5049 9.62721 19.8239 9.93946 20.08 10.2418L20.0868 10.2498L20.0943 10.2572C20.8578 11.0188 21.4927 11.8992 21.9741 12.864C22.051 13.1266 22.004 13.2609 21.9442 13.3301C21.8743 13.4112 21.7177 13.4866 21.4213 13.4866H19.1218C18.9422 13.4866 18.8036 13.4513 18.6712 13.3813C18.5332 13.3084 18.3913 13.1925 18.2133 13.0136C18.0699 12.8695 17.9133 12.6951 17.7222 12.4826C17.6749 12.4299 17.6254 12.3746 17.5734 12.3171Z" fill="#353535"/>
</svg>
