<svg width="35" height="15" viewBox="0 0 35 15" fill="none" xmlns="http://www.w3.org/2000/svg">
<path d="M18.0781 0.849609H18.083C18.4035 0.848231 18.5972 0.883991 18.7617 0.9375C18.9456 0.997357 19.1283 1.0905 19.4521 1.26367C19.947 1.52836 20.2436 1.86729 20.3711 2.18359L20.377 2.19629L20.3828 2.20996L25.0762 12.7939C25.1141 12.8941 25.1662 12.9833 25.2275 13.0596V13.0605C25.3203 13.1758 25.4294 13.2587 25.5352 13.3164C25.641 13.3741 25.7511 13.4099 25.8574 13.4297V13.4307C25.9376 13.4456 26.0186 13.4488 26.0986 13.4463C26.2773 13.4492 26.4676 13.4139 26.6436 13.3203C26.8197 13.2266 27.0175 13.0533 27.1172 12.7871L32.4629 0.888672H33.6797L28.7832 12.8193L28.7803 12.8262C28.6547 13.1392 28.362 13.4752 27.8711 13.7383C27.3822 14.0003 26.7617 14.1529 26.1064 14.1504H26.1006C25.4448 14.1527 24.8239 13.9999 24.335 13.7373C23.84 13.4715 23.5857 13.2028 23.4209 12.8096L19.1338 2.22266C19.0448 1.98996 18.8819 1.82872 18.7227 1.72852L18.6455 1.68359C18.4626 1.58899 18.2644 1.55368 18.0781 1.56055C17.9474 1.55861 17.8111 1.57596 17.6787 1.62207L17.5186 1.69238C17.3357 1.79053 17.1298 1.97298 17.0322 2.25293L14.1143 9.57227C12.478 13.1363 8.78635 14.4406 5.81055 14.0859H5.80859C4.51626 13.9339 3.25428 13.4553 2.33398 12.6865C1.43282 11.9337 0.849609 10.9003 0.849609 9.54395V0.888672H1.9248V9.54395C1.9248 10.6738 2.48744 11.7494 3.23926 12.5459C3.99324 13.3446 5.03519 13.9679 6.14746 14.0947H6.14941C7.3084 14.2246 8.66897 13.831 9.87012 13.0996C11.0868 12.3587 12.2295 11.219 12.9131 9.73438L12.9268 9.70508L12.9375 9.67383L15.6924 2.24121C15.8175 1.92818 16.1092 1.59249 16.5967 1.32812C17.207 0.997139 17.5161 0.848365 18.0781 0.849609Z" stroke="#353535" stroke-width="1.7"/>
</svg>
