<svg width="67" height="60" viewBox="0 0 67 60" fill="none" xmlns="http://www.w3.org/2000/svg">
<g clip-path="url(#clip0_266_1003)">
<path fill-rule="evenodd" clip-rule="evenodd" d="M11.6196 18.4C9.31243 18.4 7.44137 16.5997 7.44137 14.3822C7.44137 12.1648 9.31243 10.3619 11.6196 10.3619C13.9268 10.3619 15.7952 12.1622 15.7952 14.3822C15.7952 16.6022 13.9268 18.4 11.6196 18.4ZM11.6196 6.84143C7.2933 6.84143 3.78271 10.2168 3.78271 14.3822C3.78271 18.5477 7.29061 21.923 11.6196 21.923C15.9486 21.923 19.4565 18.5451 19.4565 14.3822C19.4565 10.2168 15.9486 6.84143 11.6196 6.84143Z" fill="#1D1D1B"/>
<path fill-rule="evenodd" clip-rule="evenodd" d="M41.8472 16.9078H47.5196V13.3874H41.8472V10.4084H51.2133V6.91907H38.0459V21.8427H41.8472V16.9078Z" fill="#1D1D1B"/>
<path fill-rule="evenodd" clip-rule="evenodd" d="M25.7589 16.9078H31.434V13.3874H25.7589V10.4084H35.1249V6.91907H21.9575V21.8427H25.7589V16.9078Z" fill="#1D1D1B"/>
<path fill-rule="evenodd" clip-rule="evenodd" d="M47.5681 26.3138V34.9012L41.9603 26.3138H38.0459V41.2374H41.7369V32.8703L47.5681 41.2297L47.4819 41.2374H51.2564V26.3138H47.5681Z" fill="#1D1D1B"/>
<path fill-rule="evenodd" clip-rule="evenodd" d="M14.9148 36.2404C14.1503 37.1859 12.9603 37.7972 11.6196 37.7972C9.31243 37.7972 7.44137 35.9969 7.44137 33.7769C7.44137 31.5568 9.31243 29.7591 11.6196 29.7591C12.9603 29.7591 14.1503 30.3704 14.9148 31.3133L17.8816 29.2488C16.4521 27.4225 14.1772 26.2386 11.6169 26.2386C7.29061 26.2386 3.78271 29.6166 3.78271 33.7794C3.78271 37.9423 7.29061 41.3177 11.6169 41.3177C14.1772 41.3177 16.4494 40.1364 17.8789 38.3076L14.9121 36.243L14.9148 36.2404Z" fill="#1D1D1B"/>
<path fill-rule="evenodd" clip-rule="evenodd" d="M27.5652 37.7973C25.258 37.7973 23.3869 35.9969 23.3869 33.7769C23.3869 31.5569 25.258 29.7591 27.5652 29.7591C29.8724 29.7591 31.7434 31.5595 31.7434 33.7769C31.7434 35.9943 29.8724 37.7973 27.5652 37.7973ZM27.5652 26.2361C23.2389 26.2361 19.731 29.614 19.731 33.7769C19.731 37.9397 23.2389 41.3151 27.5652 41.3151C31.8915 41.3151 35.3994 37.9371 35.3994 33.7769C35.3994 29.6166 31.8915 26.2361 27.5652 26.2361Z" fill="#1D1D1B"/>
<path fill-rule="evenodd" clip-rule="evenodd" d="M0 49.4361L10.8279 60H67V18.501L59.3758 0V49.4361H0Z" fill="#1D1D1B"/>
</g>
<defs>
<clipPath id="clip0_266_1003">
<rect width="67" height="60" fill="white"/>
</clipPath>
</defs>
</svg>
